<svg width="55" height="43" viewBox="0 0 55 43" fill="none" xmlns="http://www.w3.org/2000/svg">
<g clip-path="url(#clip0_552_14)">
<path d="M6.77109 26.504C7.08309 26.036 7.36909 25.75 7.55109 25.36C8.07109 24.242 8.53909 23.098 9.03309 21.954C9.21509 21.538 9.42309 21.122 9.68309 20.732C9.91709 20.394 10.2811 20.134 10.7491 20.212C11.0351 20.264 11.2951 20.784 11.2691 21.33C11.2691 21.59 11.2431 21.902 11.1651 22.162C10.5931 23.774 9.96909 25.412 9.03309 26.868C8.79909 27.258 8.53909 27.596 8.20109 27.908C7.23909 28.792 6.06909 28.688 5.21109 27.726C5.10709 27.57 4.97709 27.414 4.89909 27.258C3.96309 25.542 3.39109 23.696 3.39109 21.72C3.39109 21.512 3.39109 21.33 3.41709 21.148C3.52109 20.524 3.85909 20.186 4.40509 20.212C4.87309 20.238 5.18509 20.576 5.18509 21.2C5.26309 22.63 5.73109 23.982 6.22509 25.334C6.32909 25.698 6.53709 26.01 6.77109 26.504ZM20.0283 24.034C20.0283 26.426 18.1823 28.506 15.8423 28.792C13.5023 29.052 11.7343 27.024 12.2543 24.606C12.3843 23.982 12.6443 23.41 12.9043 22.838C13.2163 22.188 13.5803 21.59 13.9703 21.018C14.5163 20.16 15.2963 19.692 16.3623 19.77C18.4423 20.004 20.0283 21.824 20.0283 24.034ZM15.9203 21.668C15.5823 22.058 15.3483 22.396 15.1143 22.708C14.6203 23.306 14.2043 23.956 14.1263 24.71C13.9703 25.932 14.7243 26.686 15.9983 26.53C17.0903 26.348 17.8443 25.75 18.2343 24.71C18.7023 23.514 18.0263 22.214 16.7263 21.824C16.4663 21.746 16.1543 21.72 15.9203 21.668ZM23.1158 29.494C22.9078 29.234 22.7258 29.078 22.6218 28.87C22.0238 27.7 21.6078 26.504 21.5558 25.152C21.3738 21.642 21.4778 18.106 21.9198 14.596C21.9718 14.076 22.0758 13.556 22.2318 13.062C22.3097 12.698 22.5698 12.412 22.9858 12.438C23.4278 12.464 23.6098 12.802 23.6618 13.192C23.7138 13.53 23.7138 13.868 23.6878 14.258C23.6358 17.066 23.5838 19.874 23.5578 22.682C23.5318 23.67 23.6618 24.632 23.6358 25.568C23.5838 26.738 23.4278 27.882 23.3238 29.052C23.2978 29.156 23.1938 29.286 23.1158 29.494ZM31.2391 26.322C30.9271 26.608 30.7191 26.868 30.4851 27.076C29.9391 27.596 29.2891 28.064 28.5611 28.298C27.2351 28.688 25.9351 28.194 25.3631 26.92C25.1291 26.426 25.0251 25.828 24.9991 25.256C24.8431 22.162 27.9371 19.25 31.1871 20.212C31.3431 20.29 31.6031 20.212 31.7591 20.134C32.6691 19.718 33.3191 20.108 33.3191 21.07C33.3191 21.72 33.2671 22.37 33.2151 22.994C33.0851 24.372 33.1891 25.75 33.3711 27.102C33.4231 27.518 33.4231 27.96 33.2931 28.324C33.0851 29 32.6691 29.078 32.0971 28.662C31.7331 28.402 31.5771 28.012 31.4731 27.596C31.4211 27.388 31.3951 27.154 31.3431 26.946C31.3171 26.764 31.2911 26.608 31.2391 26.322ZM31.1351 21.902C30.3551 22.032 29.7311 22.084 29.1591 22.24C27.9631 22.604 27.0531 23.852 27.0271 25.1C27.0271 25.542 27.0531 26.036 27.4951 26.27C27.9111 26.53 28.2751 26.218 28.6131 25.984C29.9651 25.048 30.6411 23.644 31.1351 21.902ZM36.7245 20.602C37.2705 20.134 37.8685 19.718 38.5965 19.64C39.6885 19.484 40.4945 19.926 40.9365 20.836C41.4305 21.876 41.2745 22.734 40.3385 23.722C39.9225 23.202 39.6105 22.63 39.4805 21.954C39.2725 21.33 39.0385 21.226 38.5185 21.512C37.8945 21.85 37.4785 22.422 37.3745 23.15C37.2445 24.19 37.1665 25.178 37.0885 26.218C37.0105 26.66 37.0885 27.128 37.0625 27.622C37.0105 28.168 36.6985 28.506 36.2565 28.532C35.8145 28.558 35.4505 28.272 35.3465 27.752C35.2425 27.466 35.2165 27.128 35.2165 26.842C35.1125 25.412 35.0345 23.982 35.0085 22.578C35.0085 22.24 35.0345 21.954 35.0865 21.642C35.2685 20.394 35.6585 20.16 36.7245 20.602ZM44.2438 27.414C44.2438 27.648 44.2178 27.882 44.1658 28.09C44.0618 28.61 43.6198 29.078 43.2818 29.052C42.9438 29.026 42.4498 28.532 42.3718 28.064C42.3198 27.752 42.2678 27.414 42.2938 27.102C42.3718 25.646 42.4758 24.216 42.5798 22.812C42.6058 22.526 42.6838 22.24 42.7878 21.98C42.9178 21.642 43.2038 21.382 43.6198 21.434C44.0098 21.486 44.2438 21.746 44.3218 22.136C44.3478 22.448 44.3478 22.812 44.3478 23.124C44.4258 24.736 44.2438 25.88 44.2438 27.414ZM43.0218 18.73C43.0218 17.794 43.3858 17.222 43.9318 17.248C44.4258 17.248 44.7378 17.716 44.7378 18.522C44.7378 19.406 44.3478 20.03 43.8278 19.978C43.3598 19.978 43.0218 19.484 43.0218 18.73ZM46.5728 26.868L48.5748 26.972C48.9648 26.998 49.3808 27.154 49.6148 26.686C49.7708 26.374 49.5108 25.984 48.9648 25.672C48.6528 25.49 48.2888 25.334 47.9508 25.126C47.4308 24.788 46.8588 24.45 46.4688 23.982C45.4808 22.864 45.6108 21.278 46.7288 20.29C47.8208 19.328 49.4848 19.224 50.6808 20.004C51.0448 20.264 51.3568 20.576 51.4348 21.044C51.4868 21.512 51.2528 21.72 50.7848 21.642C50.3948 21.538 50.0048 21.382 49.6148 21.278C49.1728 21.148 48.7308 21.096 48.2888 21.304C47.4828 21.694 47.3268 22.474 48.0288 23.072C48.3668 23.384 48.8088 23.566 49.1988 23.8C49.6928 24.112 50.2648 24.372 50.6808 24.736C51.4868 25.464 51.6688 26.608 51.2528 27.544C50.8628 28.428 50.0048 28.922 48.9128 28.896C47.7688 28.87 46.9888 28.324 46.6248 27.31C46.5988 27.206 46.5988 27.102 46.5728 26.868Z" fill="black"/>
</g>
<defs>
<clipPath id="clip0_552_14">
<rect width="55" height="43" fill="white"/>
</clipPath>
</defs>
</svg>
