<svg width="55" height="43" viewBox="0 0 55 43" fill="none" xmlns="http://www.w3.org/2000/svg">
<g clip-path="url(#clip0_552_14)">
<path d="M6.88535 26.504C7.19735 26.036 7.48335 25.75 7.66535 25.36C8.18535 24.242 8.65335 23.098 9.14735 21.954C9.32935 21.538 9.53735 21.122 9.79735 20.732C10.0314 20.394 10.3954 20.134 10.8634 20.212C11.1494 20.264 11.4094 20.784 11.3834 21.33C11.3834 21.59 11.3574 21.902 11.2794 22.162C10.7074 23.774 10.0834 25.412 9.14735 26.868C8.91335 27.258 8.65335 27.596 8.31535 27.908C7.35335 28.792 6.18335 28.688 5.32535 27.726C5.22135 27.57 5.09135 27.414 5.01335 27.258C4.07735 25.542 3.50535 23.696 3.50535 21.72C3.50535 21.512 3.50535 21.33 3.53135 21.148C3.63535 20.524 3.97335 20.186 4.51935 20.212C4.98735 20.238 5.29935 20.576 5.29935 21.2C5.37735 22.63 5.84535 23.982 6.33935 25.334C6.44335 25.698 6.65135 26.01 6.88535 26.504ZM20.1425 24.034C20.1425 26.426 18.2965 28.506 15.9565 28.792C13.6165 29.052 11.8485 27.024 12.3685 24.606C12.4985 23.982 12.7585 23.41 13.0185 22.838C13.3305 22.188 13.6945 21.59 14.0845 21.018C14.6305 20.16 15.4105 19.692 16.4765 19.77C18.5565 20.004 20.1425 21.824 20.1425 24.034ZM16.0345 21.668C15.6965 22.058 15.4625 22.396 15.2285 22.708C14.7345 23.306 14.3185 23.956 14.2405 24.71C14.0845 25.932 14.8385 26.686 16.1125 26.53C17.2045 26.348 17.9585 25.75 18.3485 24.71C18.8165 23.514 18.1405 22.214 16.8405 21.824C16.5805 21.746 16.2685 21.72 16.0345 21.668ZM23.204 20.602C23.75 20.134 24.348 19.718 25.076 19.64C26.168 19.484 26.974 19.926 27.416 20.836C27.91 21.876 27.754 22.734 26.818 23.722C26.402 23.202 26.09 22.63 25.96 21.954C25.752 21.33 25.518 21.226 24.998 21.512C24.374 21.85 23.958 22.422 23.854 23.15C23.724 24.19 23.646 25.178 23.568 26.218C23.49 26.66 23.568 27.128 23.542 27.622C23.49 28.168 23.178 28.506 22.736 28.532C22.294 28.558 21.93 28.272 21.826 27.752C21.722 27.466 21.696 27.128 21.696 26.842C21.592 25.412 21.514 23.982 21.488 22.578C21.488 22.24 21.514 21.954 21.566 21.642C21.748 20.394 22.138 20.16 23.204 20.602ZM34.8573 26.322C34.5453 26.608 34.3373 26.868 34.1033 27.076C33.5573 27.596 32.9073 28.064 32.1793 28.298C30.8533 28.688 29.5533 28.194 28.9813 26.92C28.7473 26.426 28.6433 25.828 28.6173 25.256C28.4613 22.162 31.5553 19.25 34.8053 20.212C34.9613 20.29 35.2213 20.212 35.3773 20.134C36.2873 19.718 36.9373 20.108 36.9373 21.07C36.9373 21.72 36.8853 22.37 36.8333 22.994C36.7033 24.372 36.8073 25.75 36.9893 27.102C37.0413 27.518 37.0413 27.96 36.9113 28.324C36.7033 29 36.2873 29.078 35.7153 28.662C35.3513 28.402 35.1953 28.012 35.0913 27.596C35.0393 27.388 35.0133 27.154 34.9613 26.946C34.9353 26.764 34.9093 26.608 34.8573 26.322ZM34.7533 21.902C33.9733 22.032 33.3493 22.084 32.7773 22.24C31.5813 22.604 30.6713 23.852 30.6453 25.1C30.6453 25.542 30.6713 26.036 31.1133 26.27C31.5293 26.53 31.8933 26.218 32.2313 25.984C33.5833 25.048 34.2593 23.644 34.7533 21.902ZM40.3687 29.494C40.1607 29.234 39.9787 29.078 39.8747 28.87C39.2767 27.7 38.8607 26.504 38.8087 25.152C38.6267 21.642 38.7307 18.106 39.1727 14.596C39.2247 14.076 39.3287 13.556 39.4847 13.062C39.5627 12.698 39.8227 12.412 40.2387 12.438C40.6807 12.464 40.8627 12.802 40.9147 13.192C40.9667 13.53 40.9667 13.868 40.9407 14.258C40.8887 17.066 40.8367 19.874 40.8107 22.682C40.7847 23.67 40.9147 24.632 40.8887 25.568C40.8367 26.738 40.6807 27.882 40.5767 29.052C40.5507 29.156 40.4467 29.286 40.3687 29.494ZM44.1295 27.414C44.1295 27.648 44.1035 27.882 44.0515 28.09C43.9475 28.61 43.5055 29.078 43.1675 29.052C42.8295 29.026 42.3355 28.532 42.2575 28.064C42.2055 27.752 42.1535 27.414 42.1795 27.102C42.2575 25.646 42.3615 24.216 42.4655 22.812C42.4915 22.526 42.5695 22.24 42.6735 21.98C42.8035 21.642 43.0895 21.382 43.5055 21.434C43.8955 21.486 44.1295 21.746 44.2075 22.136C44.2335 22.448 44.2335 22.812 44.2335 23.124C44.3115 24.736 44.1295 25.88 44.1295 27.414ZM42.9075 18.73C42.9075 17.794 43.2715 17.222 43.8175 17.248C44.3115 17.248 44.6235 17.716 44.6235 18.522C44.6235 19.406 44.2335 20.03 43.7135 19.978C43.2455 19.978 42.9075 19.484 42.9075 18.73ZM46.4586 26.868L48.4606 26.972C48.8506 26.998 49.2666 27.154 49.5006 26.686C49.6566 26.374 49.3966 25.984 48.8506 25.672C48.5386 25.49 48.1746 25.334 47.8366 25.126C47.3166 24.788 46.7446 24.45 46.3546 23.982C45.3666 22.864 45.4966 21.278 46.6146 20.29C47.7066 19.328 49.3706 19.224 50.5666 20.004C50.9306 20.264 51.2426 20.576 51.3206 21.044C51.3726 21.512 51.1386 21.72 50.6706 21.642C50.2806 21.538 49.8906 21.382 49.5006 21.278C49.0586 21.148 48.6166 21.096 48.1746 21.304C47.3686 21.694 47.2126 22.474 47.9146 23.072C48.2526 23.384 48.6946 23.566 49.0846 23.8C49.5786 24.112 50.1506 24.372 50.5666 24.736C51.3726 25.464 51.5546 26.608 51.1386 27.544C50.7486 28.428 49.8906 28.922 48.7986 28.896C47.6546 28.87 46.8746 28.324 46.5106 27.31C46.4846 27.206 46.4846 27.102 46.4586 26.868Z" fill="black"/>
</g>
<defs>
<clipPath id="clip0_552_14">
<rect width="55" height="43" fill="white"/>
</clipPath>
</defs>
</svg>
