<svg width="285" height="234" viewBox="0 0 285 234" fill="none" xmlns="http://www.w3.org/2000/svg">
<g clip-path="url(#clip0_552_20)">
<path d="M34.5351 148.4C35.8951 145.68 37.5271 142.96 38.8871 140.104C45.8231 124.872 58.6071 95.224 65.4071 80.128C66.6311 77 68.1271 74.144 71.1191 72.24C71.7991 71.832 72.4791 71.424 73.4311 71.016C75.0631 70.608 76.2871 71.016 76.6951 72.92C77.7831 76.592 77.1031 79.992 75.7431 83.256C72.3431 90.328 63.2311 111.952 60.1031 119.024C56.2951 127.32 52.6231 135.752 48.8151 144.184C47.4551 147.312 45.6871 150.44 43.9191 153.568C42.9671 155.2 41.7431 156.56 40.5191 158.056C35.8951 162.952 29.5031 162.408 25.9671 156.696C24.1991 153.704 22.4311 150.168 21.6151 146.632C18.4871 134.256 15.7671 121.472 13.0471 109.096C12.0951 103.928 8.69513 86.112 8.01513 81.08C7.87913 78.632 7.87913 76.456 7.87913 74.144C7.87913 72.376 8.96713 71.016 10.7351 70.88C12.0951 70.88 13.7271 71.424 14.5431 72.376C15.7671 74.008 16.5831 76.048 17.1271 78.088C18.8951 86.112 23.1111 106.92 25.0151 114.808C27.1911 124.464 29.5031 134.12 31.8151 143.64C32.2231 145.136 32.9031 146.768 33.5831 148.4C33.8551 148.4 34.2631 148.4 34.5351 148.4ZM112.581 136.024C112.581 148.536 102.925 159.416 90.6851 160.912C78.4451 162.272 69.1971 151.664 71.9171 139.016C72.5971 135.752 73.9571 132.76 75.3171 129.768C76.9491 126.368 78.8531 123.24 80.8931 120.248C83.7491 115.76 87.8291 113.312 93.4051 113.72C104.285 114.944 112.581 124.464 112.581 136.024ZM91.0931 123.648C89.3251 125.688 88.1011 127.456 86.8771 129.088C84.2931 132.216 82.1171 135.616 81.7091 139.56C80.8931 145.952 84.8371 149.896 91.5011 149.08C97.2131 148.128 101.157 145 103.197 139.56C105.645 133.304 102.109 126.504 95.3091 124.464C93.9491 124.056 92.3171 123.92 91.0931 123.648ZM128.595 118.072C131.451 115.624 134.579 113.448 138.387 113.04C144.099 112.224 148.315 114.536 150.627 119.296C153.211 124.736 152.395 129.224 147.499 134.392C145.323 131.672 143.691 128.68 143.011 125.144C141.923 121.88 140.699 121.336 137.979 122.832C134.715 124.6 132.539 127.592 131.995 131.4C131.315 136.84 130.907 142.008 130.499 147.448C130.091 149.76 130.499 152.208 130.363 154.792C130.091 157.648 128.459 159.416 126.147 159.552C123.835 159.688 121.931 158.192 121.387 155.472C120.843 153.976 120.707 152.208 120.707 150.712C120.163 143.232 119.755 135.752 119.619 128.408C119.619 126.64 119.755 125.144 120.027 123.512C120.979 116.984 123.019 115.76 128.595 118.072ZM189.551 147.992C187.919 149.488 186.831 150.848 185.607 151.936C182.751 154.656 179.351 157.104 175.543 158.328C168.607 160.368 161.807 157.784 158.815 151.12C157.591 148.536 157.047 145.408 156.911 142.416C156.095 126.232 172.279 111 189.279 116.032C190.095 116.44 191.455 116.032 192.271 115.624C197.031 113.448 200.431 115.488 200.431 120.52C200.431 123.92 200.159 127.32 199.887 130.584C199.207 137.792 199.751 145 200.703 152.072C200.975 154.248 200.975 156.56 200.295 158.464C199.207 162 197.031 162.408 194.039 160.232C192.135 158.872 191.319 156.832 190.775 154.656C190.503 153.568 190.367 152.344 190.095 151.256C189.959 150.304 189.823 149.488 189.551 147.992ZM189.007 124.872C184.927 125.552 181.663 125.824 178.671 126.64C172.415 128.544 167.655 135.072 167.519 141.6C167.519 143.912 167.655 146.496 169.967 147.72C172.143 149.08 174.047 147.448 175.815 146.224C182.887 141.328 186.423 133.984 189.007 124.872ZM218.38 164.584C217.292 163.224 216.34 162.408 215.796 161.32C212.668 155.2 210.492 148.944 210.22 141.872C209.268 123.512 209.812 105.016 212.124 86.656C212.396 83.936 212.94 81.216 213.756 78.632C214.163 76.728 215.524 75.232 217.7 75.368C220.012 75.504 220.964 77.272 221.236 79.312C221.508 81.08 221.508 82.848 221.372 84.888C221.1 99.576 220.828 114.264 220.692 128.952C220.556 134.12 221.236 139.152 221.1 144.048C220.828 150.168 220.012 156.152 219.468 162.272C219.332 162.816 218.788 163.496 218.38 164.584ZM238.052 153.704C238.052 154.928 237.916 156.152 237.644 157.24C237.1 159.96 234.788 162.408 233.02 162.272C231.252 162.136 228.668 159.552 228.26 157.104C227.988 155.472 227.716 153.704 227.852 152.072C228.26 144.456 228.804 136.976 229.348 129.632C229.484 128.136 229.892 126.64 230.436 125.28C231.116 123.512 232.612 122.152 234.788 122.424C236.828 122.696 238.052 124.056 238.46 126.096C238.596 127.728 238.596 129.632 238.596 131.264C239.004 139.696 238.052 145.68 238.052 153.704ZM231.66 108.28C231.66 103.384 233.564 100.392 236.42 100.528C239.004 100.528 240.636 102.976 240.636 107.192C240.636 111.816 238.596 115.08 235.876 114.808C233.428 114.808 231.66 112.224 231.66 108.28ZM250.234 150.848L260.706 151.392C262.746 151.528 264.922 152.344 266.146 149.896C266.962 148.264 265.602 146.224 262.746 144.592C261.114 143.64 259.21 142.824 257.442 141.736C254.722 139.968 251.73 138.2 249.69 135.752C244.522 129.904 245.202 121.608 251.05 116.44C256.762 111.408 265.466 110.864 271.722 114.944C273.626 116.304 275.258 117.936 275.666 120.384C275.938 122.832 274.714 123.92 272.266 123.512C270.226 122.968 268.186 122.152 266.146 121.608C263.834 120.928 261.522 120.656 259.21 121.744C254.994 123.784 254.178 127.864 257.85 130.992C259.618 132.624 261.93 133.576 263.97 134.8C266.554 136.432 269.546 137.792 271.722 139.696C275.938 143.504 276.89 149.488 274.714 154.384C272.674 159.008 268.186 161.592 262.474 161.456C256.49 161.32 252.41 158.464 250.506 153.16C250.37 152.616 250.37 152.072 250.234 150.848Z" fill="black"/>
</g>
<defs>
<clipPath id="clip0_552_20">
<rect width="285" height="234" fill="white"/>
</clipPath>
</defs>
</svg>
