<svg width="285" height="234" viewBox="0 0 285 234" fill="none" xmlns="http://www.w3.org/2000/svg">
<g clip-path="url(#clip0_552_20)">
<path d="M33.9375 148.4C35.2975 145.68 36.9295 142.96 38.2895 140.104C45.2255 124.872 58.0095 95.224 64.8095 80.128C66.0335 77 67.5295 74.144 70.5215 72.24C71.2015 71.832 71.8815 71.424 72.8335 71.016C74.4655 70.608 75.6895 71.016 76.0975 72.92C77.1855 76.592 76.5055 79.992 75.1455 83.256C71.7455 90.328 62.6335 111.952 59.5055 119.024C55.6975 127.32 52.0255 135.752 48.2175 144.184C46.8575 147.312 45.0895 150.44 43.3215 153.568C42.3695 155.2 41.1455 156.56 39.9215 158.056C35.2975 162.952 28.9055 162.408 25.3695 156.696C23.6015 153.704 21.8335 150.168 21.0175 146.632C17.8895 134.256 15.1695 121.472 12.4495 109.096C11.4975 103.928 8.09747 86.112 7.41747 81.08C7.28147 78.632 7.28147 76.456 7.28147 74.144C7.28147 72.376 8.36947 71.016 10.1375 70.88C11.4975 70.88 13.1295 71.424 13.9455 72.376C15.1695 74.008 15.9855 76.048 16.5295 78.088C18.2975 86.112 22.5135 106.92 24.4175 114.808C26.5935 124.464 28.9055 134.12 31.2175 143.64C31.6255 145.136 32.3055 146.768 32.9855 148.4C33.2575 148.4 33.6655 148.4 33.9375 148.4ZM111.983 136.024C111.983 148.536 102.327 159.416 90.0874 160.912C77.8474 162.272 68.5994 151.664 71.3194 139.016C71.9994 135.752 73.3594 132.76 74.7194 129.768C76.3514 126.368 78.2554 123.24 80.2954 120.248C83.1514 115.76 87.2314 113.312 92.8074 113.72C103.687 114.944 111.983 124.464 111.983 136.024ZM90.4954 123.648C88.7274 125.688 87.5034 127.456 86.2794 129.088C83.6954 132.216 81.5194 135.616 81.1114 139.56C80.2954 145.952 84.2394 149.896 90.9034 149.08C96.6154 148.128 100.559 145 102.599 139.56C105.047 133.304 101.511 126.504 94.7114 124.464C93.3514 124.056 91.7194 123.92 90.4954 123.648ZM128.133 164.584C127.045 163.224 126.093 162.408 125.549 161.32C122.421 155.2 120.245 148.944 119.973 141.872C119.021 123.512 119.565 105.016 121.877 86.656C122.149 83.936 122.693 81.216 123.509 78.632C123.917 76.728 125.277 75.232 127.453 75.368C129.765 75.504 130.717 77.272 130.989 79.312C131.261 81.08 131.261 82.848 131.125 84.888C130.853 99.576 130.581 114.264 130.445 128.952C130.309 134.12 130.989 139.152 130.853 144.048C130.581 150.168 129.765 156.152 129.221 162.272C129.085 162.816 128.541 163.496 128.133 164.584ZM170.625 147.992C168.993 149.488 167.905 150.848 166.681 151.936C163.825 154.656 160.425 157.104 156.617 158.328C149.681 160.368 142.881 157.784 139.889 151.12C138.665 148.536 138.121 145.408 137.985 142.416C137.169 126.232 153.353 111 170.353 116.032C171.169 116.44 172.529 116.032 173.345 115.624C178.105 113.448 181.505 115.488 181.505 120.52C181.505 123.92 181.233 127.32 180.961 130.584C180.281 137.792 180.825 145 181.777 152.072C182.049 154.248 182.049 156.56 181.369 158.464C180.281 162 178.105 162.408 175.113 160.232C173.209 158.872 172.393 156.832 171.849 154.656C171.577 153.568 171.441 152.344 171.169 151.256C171.033 150.304 170.897 149.488 170.625 147.992ZM170.081 124.872C166.001 125.552 162.737 125.824 159.745 126.64C153.489 128.544 148.729 135.072 148.593 141.6C148.593 143.912 148.729 146.496 151.041 147.72C153.217 149.08 155.121 147.448 156.889 146.224C163.961 141.328 167.497 133.984 170.081 124.872ZM199.318 118.072C202.174 115.624 205.302 113.448 209.11 113.04C214.822 112.224 219.038 114.536 221.35 119.296C223.934 124.736 223.118 129.224 218.222 134.392C216.046 131.672 214.414 128.68 213.734 125.144C212.646 121.88 211.422 121.336 208.702 122.832C205.438 124.6 203.262 127.592 202.718 131.4C202.038 136.84 201.63 142.008 201.222 147.448C200.814 149.76 201.222 152.208 201.086 154.792C200.814 157.648 199.182 159.416 196.87 159.552C194.558 159.688 192.654 158.192 192.11 155.472C191.566 153.976 191.43 152.208 191.43 150.712C190.886 143.232 190.478 135.752 190.342 128.408C190.342 126.64 190.478 125.144 190.75 123.512C191.702 116.984 193.742 115.76 199.318 118.072ZM238.649 153.704C238.649 154.928 238.513 156.152 238.241 157.24C237.697 159.96 235.385 162.408 233.617 162.272C231.849 162.136 229.265 159.552 228.857 157.104C228.585 155.472 228.313 153.704 228.449 152.072C228.857 144.456 229.401 136.976 229.945 129.632C230.081 128.136 230.489 126.64 231.033 125.28C231.713 123.512 233.209 122.152 235.385 122.424C237.425 122.696 238.649 124.056 239.057 126.096C239.193 127.728 239.193 129.632 239.193 131.264C239.601 139.696 238.649 145.68 238.649 153.704ZM232.257 108.28C232.257 103.384 234.161 100.392 237.017 100.528C239.601 100.528 241.233 102.976 241.233 107.192C241.233 111.816 239.193 115.08 236.473 114.808C234.025 114.808 232.257 112.224 232.257 108.28ZM250.832 150.848L261.304 151.392C263.344 151.528 265.52 152.344 266.744 149.896C267.56 148.264 266.2 146.224 263.344 144.592C261.712 143.64 259.808 142.824 258.04 141.736C255.32 139.968 252.328 138.2 250.288 135.752C245.12 129.904 245.8 121.608 251.648 116.44C257.36 111.408 266.064 110.864 272.32 114.944C274.224 116.304 275.856 117.936 276.264 120.384C276.536 122.832 275.312 123.92 272.864 123.512C270.824 122.968 268.784 122.152 266.744 121.608C264.432 120.928 262.12 120.656 259.808 121.744C255.592 123.784 254.776 127.864 258.448 130.992C260.216 132.624 262.528 133.576 264.568 134.8C267.152 136.432 270.144 137.792 272.32 139.696C276.536 143.504 277.488 149.488 275.312 154.384C273.272 159.008 268.784 161.592 263.072 161.456C257.088 161.32 253.008 158.464 251.104 153.16C250.968 152.616 250.968 152.072 250.832 150.848Z" fill="black"/>
</g>
<defs>
<clipPath id="clip0_552_20">
<rect width="285" height="234" fill="white"/>
</clipPath>
</defs>
</svg>
